<svg aria-hidden="true" style="position:absolute;width:0;height:0" xmlns="http://www.w3.org/2000/svg" overflow="hidden"><defs><symbol id="icon-arrow-right" viewBox="0 0 32 32"><path d="M19.414 27.414l10-10a2 2 0 000-2.828l-10-10a2 2 0 10-2.828 2.828L23.172 14H4a2 2 0 100 4h19.172l-6.586 6.586c-.39.39-.586.902-.586 1.414s.195 1.024.586 1.414a2 2 0 002.828 0z"/></symbol><symbol id="icon-telegram" viewBox="0 0 28 28"><path d="M18.578 20.422l2.297-10.828c.203-.953-.344-1.328-.969-1.094l-13.5 5.203c-.922.359-.906.875-.156 1.109l3.453 1.078 8.016-5.047c.375-.25.719-.109.438.141l-6.484 5.859-.25 3.563c.359 0 .516-.156.703-.344l1.687-1.625 3.5 2.578c.641.359 1.094.172 1.266-.594zM28 14c0 7.734-6.266 14-14 14S0 21.734 0 14 6.266 0 14 0s14 6.266 14 14z"/></symbol><symbol id="icon-github" viewBox="0 0 32 32"><path d="M16 .396c-8.84 0-16 7.164-16 16 0 7.071 4.584 13.067 10.94 15.18.8.151 1.093-.344 1.093-.769 0-.38-.013-1.387-.02-2.72-4.451.965-5.389-2.147-5.389-2.147-.728-1.847-1.78-2.34-1.78-2.34-1.449-.992.112-.972.112-.972 1.607.112 2.451 1.648 2.451 1.648 1.427 2.447 3.745 1.74 4.66 1.331.144-1.035.556-1.74 1.013-2.14-3.553-.4-7.288-1.776-7.288-7.907 0-1.747.62-3.173 1.647-4.293-.18-.404-.72-2.031.14-4.235 0 0 1.34-.429 4.4 1.64 1.28-.356 2.64-.532 4-.54 1.36.008 2.72.184 4 .54 3.04-2.069 4.38-1.64 4.38-1.64.86 2.204.32 3.831.16 4.235 1.02 1.12 1.64 2.547 1.64 4.293 0 6.147-3.74 7.5-7.3 7.893.56.48 1.08 1.461 1.08 2.96 0 2.141-.02 3.861-.02 4.381 0 .42.28.92 1.1.76C27.42 29.455 32 23.455 32 16.395c0-8.836-7.164-16-16-16z"/></symbol><symbol id="icon-facebook" viewBox="0 0 32 32"><path d="M19 6h5V0h-5c-3.86 0-7 3.14-7 7v3H8v6h4v16h6V16h5l1-6h-6V7c0-.542.458-1 1-1z"/></symbol><symbol id="icon-home" viewBox="0 0 20 20"><path d="M8 20H3V10H0L10 0l10 10h-3v10h-5v-6H8v6z"/></symbol></defs></svg>